<svg xmlns="http://www.w3.org/2000/svg" xmlns:xlink="http://www.w3.org/1999/xlink" viewBox="0 0 948.33 313.41"><defs><style>.cls-1{fill:none;}.cls-2{clip-path:url(#clip-path);}.cls-3{fill:url(#Gradiente_sem_nome_3);}.cls-4{clip-path:url(#clip-path-2);}.cls-5{fill:url(#Gradiente_sem_nome_4);}.cls-6{clip-path:url(#clip-path-3);}.cls-7{fill:#a1875b;}.cls-8{fill:#c1a711;}.cls-9{fill:#c6c2c2;}.cls-10{fill:#094b8a;}.cls-11{fill:#077fbc;}.cls-12{fill:#979494;}</style><clipPath id="clip-path" transform="translate(-352.28 -140.4)"><path class="cls-1" d="M497.89,223.81c-27.74,20.58-50.88,36.69-86.54,25.9-7.41,39.91-16.76,76.71-23.17,111.9,39.34,16.33,72.95,1.51,103.76-16.43,28.14-16.38,59.77-32,91.13-19.42,8-39,15.63-76,24.86-120.9a88.59,88.59,0,0,0-37.53-8.35c-24.57,0-49.29,10.06-72.51,27.3"/></clipPath><linearGradient id="Gradiente_sem_nome_3" y1="1079.98" x2="1" y2="1079.98" gradientTransform="matrix(-177.68, -47.92, 35.68, -170.73, -38304.51, 184556.09)" gradientUnits="userSpaceOnUse"><stop offset="0" stop-color="#a7a3a4"/><stop offset="0.01" stop-color="#afacad"/><stop offset="0.07" stop-color="#cecdcd"/><stop offset="0.13" stop-color="#e5e5e5"/><stop offset="0.18" stop-color="#f2f3f3"/><stop offset="0.23" stop-color="#f7f8f8"/><stop offset="0.29" stop-color="#f3f3f3"/><stop offset="0.36" stop-color="#e5e5e5"/><stop offset="0.43" stop-color="#d0cdcd"/><stop offset="0.49" stop-color="#bcb7b7"/><stop offset="0.5" stop-color="#b5b0b0"/><stop offset="0.53" stop-color="#a39f9e"/><stop offset="0.57" stop-color="#989494"/><stop offset="0.61" stop-color="#949190"/><stop offset="0.64" stop-color="#acaaaa"/><stop offset="0.69" stop-color="#cdcccc"/><stop offset="0.73" stop-color="#e4e4e4"/><stop offset="0.78" stop-color="#f2f3f3"/><stop offset="0.81" stop-color="#f7f8f8"/><stop offset="0.98" stop-color="#dbd9d9"/><stop offset="1" stop-color="#d8d5d5"/></linearGradient><clipPath id="clip-path-2" transform="translate(-352.28 -140.4)"><path class="cls-1" d="M403.81,287c5.81,7,22.87,23.3,55.63,23.3a123.15,123.15,0,0,0,30.66-4.19,112.39,112.39,0,0,1,27.85-3.9c27,0,38.64,13.3,42.4,19a63.51,63.51,0,0,1,22.7,4.57h0l10.15-49.53c-5.15-7.68-21-24.84-52.87-24.5-13.81.14-29.19,3.69-45.75,10.34a68.1,68.1,0,0,1-25.36,5.28,52.58,52.58,0,0,1-36.15-14.26,76.14,76.14,0,0,1-21.79-3.43c-2,11-4.43,22.83-7.51,37.28"/></clipPath><linearGradient id="Gradiente_sem_nome_4" y1="1079.96" x2="1" y2="1079.96" gradientTransform="matrix(0, 195.33, 195.33, 0, -210454.34, 190.46)" gradientUnits="userSpaceOnUse"><stop offset="0" stop-color="#006da7"/><stop offset="0.19" stop-color="#058cc9"/><stop offset="0.23" stop-color="#0788c4"/><stop offset="0.27" stop-color="#0c7db7"/><stop offset="0.32" stop-color="#1569a1"/><stop offset="0.37" stop-color="#224f83"/><stop offset="0.39" stop-color="#274375"/><stop offset="0.49" stop-color="#274375"/><stop offset="0.6" stop-color="#12629a"/><stop offset="0.7" stop-color="#0576b1"/><stop offset="0.75" stop-color="#007dba"/><stop offset="0.82" stop-color="#0970ab"/><stop offset="0.96" stop-color="#1f4f84"/><stop offset="1" stop-color="#274375"/></linearGradient><clipPath id="clip-path-3" transform="translate(-352.28 -140.4)"><rect class="cls-1" width="1920" height="1080"/></clipPath></defs><g id="Camada_2" data-name="Camada 2"><g id="Camada_1-2" data-name="Camada 1"><g class="cls-2"><polygon class="cls-3" points="291.54 65.79 47.63 0 0 227.86 243.92 293.65 291.54 65.79"/></g><g class="cls-4"><rect class="cls-5" x="442.88" y="187.46" width="111.3" height="200.58" transform="translate(-232.49 580.81) rotate(-78.85)"/></g><g class="cls-6"><path class="cls-7" d="M504.59,273.49l-.18,1.53,1.36-2.43a1,1,0,0,0,.14-.4l.1-.62Z" transform="translate(-352.28 -140.4)"/><path class="cls-7" d="M504.51,273.36l-.14,1.21-.8-.85a.12.12,0,0,1,0-.09l0-.55Z" transform="translate(-352.28 -140.4)"/><path class="cls-7" d="M504.52,271.07l-.17,1.51,1.35-2.42a1.28,1.28,0,0,0,.14-.4l.09-.61Z" transform="translate(-352.28 -140.4)"/><path class="cls-7" d="M504.44,270.94l-.14,1.2-.8-.83a.25.25,0,0,1,0-.1l0-.54Z" transform="translate(-352.28 -140.4)"/><path class="cls-7" d="M504,269l-.17,1.5,1.34-2.41a.92.92,0,0,0,.14-.39l.1-.61Z" transform="translate(-352.28 -140.4)"/><path class="cls-7" d="M503.9,268.83l-.13,1.19-.79-.82s0-.05,0-.09l0-.53Z" transform="translate(-352.28 -140.4)"/><path class="cls-7" d="M504.17,276.23l-.18,1.55,1.36-2.45a1.09,1.09,0,0,0,.15-.4l.09-.62Z" transform="translate(-352.28 -140.4)"/><path class="cls-7" d="M504.09,276.1l-.14,1.22-.8-.86a.15.15,0,0,1,0-.1l0-.55Z" transform="translate(-352.28 -140.4)"/><path class="cls-7" d="M503.29,279.27l-.18,1.55,1.37-2.45a1.09,1.09,0,0,0,.15-.4l.09-.63Z" transform="translate(-352.28 -140.4)"/><path class="cls-7" d="M503.21,279.13l-.14,1.24-.8-.89a.1.1,0,0,1,0-.1l0-.55Z" transform="translate(-352.28 -140.4)"/><path class="cls-7" d="M502,282.59l-.18,1.57,1.37-2.45a1.42,1.42,0,0,0,.14-.41l.1-.63Z" transform="translate(-352.28 -140.4)"/><path class="cls-7" d="M501.87,282.45l-.15,1.25-.79-.9a.11.11,0,0,1,0-.1l0-.56Z" transform="translate(-352.28 -140.4)"/><path class="cls-7" d="M499.86,286.36l-.18,1.57,1.37-2.45a1.33,1.33,0,0,0,.14-.41l.1-.63Z" transform="translate(-352.28 -140.4)"/><path class="cls-7" d="M499.79,286.22l-.15,1.25-.79-.92a.15.15,0,0,1,0-.1l0-.56Z" transform="translate(-352.28 -140.4)"/><path class="cls-7" d="M497.38,289.6l-.2,1.58,1.37-2.44a1.47,1.47,0,0,0,.15-.41l.1-.64Z" transform="translate(-352.28 -140.4)"/><path class="cls-7" d="M497.3,289.46l-.15,1.25-.77-.93a.11.11,0,0,1,0-.1l0-.57Z" transform="translate(-352.28 -140.4)"/><path class="cls-8" d="M483,286.59l-.22,1.47-.78-1a.37.37,0,0,1,0-.27l.06-.56Z" transform="translate(-352.28 -140.4)"/><path class="cls-8" d="M483.15,286.35l-.17,1.17,1.06-1.91a.69.69,0,0,0,0-.13l.1-.56Z" transform="translate(-352.28 -140.4)"/><path class="cls-8" d="M483.73,283.83l-.21,1.47-.79-1a.35.35,0,0,1-.05-.26l.06-.56Z" transform="translate(-352.28 -140.4)"/><path class="cls-8" d="M483.85,283.59l-.17,1.17,1.06-1.91a.69.69,0,0,0,.05-.13l.1-.55Z" transform="translate(-352.28 -140.4)"/><path class="cls-8" d="M484.84,280.84l-.2,1.45-.8-1a.41.41,0,0,1,0-.26l.06-.55Z" transform="translate(-352.28 -140.4)"/><path class="cls-8" d="M485,280.59l-.16,1.16,1.06-1.9a.37.37,0,0,0,0-.14l.1-.54Z" transform="translate(-352.28 -140.4)"/><path class="cls-8" d="M482.76,289.1l-.22,1.49-.79-1.06a.34.34,0,0,1,0-.26l.06-.57Z" transform="translate(-352.28 -140.4)"/><path class="cls-8" d="M482.88,288.86,482.7,290l1.07-1.92a.24.24,0,0,0,.05-.13l.1-.56Z" transform="translate(-352.28 -140.4)"/><path class="cls-8" d="M482.89,291.4l-.22,1.5-.79-1.08a.36.36,0,0,1-.05-.27l.06-.57Z" transform="translate(-352.28 -140.4)"/><path class="cls-8" d="M483,291.15l-.18,1.2,1.08-1.93a.78.78,0,0,0,0-.14l.1-.56Z" transform="translate(-352.28 -140.4)"/><path class="cls-8" d="M483.44,293.48l-.22,1.51-.8-1.09a.39.39,0,0,1-.05-.28l.06-.58Z" transform="translate(-352.28 -140.4)"/><path class="cls-8" d="M483.56,293.23l-.17,1.2,1.08-1.94a.58.58,0,0,0,0-.14l.1-.57Z" transform="translate(-352.28 -140.4)"/><path class="cls-8" d="M484.67,295.19l-.21,1.53-.82-1.11a.39.39,0,0,1-.05-.28l.06-.59Z" transform="translate(-352.28 -140.4)"/><path class="cls-8" d="M484.79,294.94l-.17,1.22,1.09-2a.3.3,0,0,0,.05-.14l.11-.58Z" transform="translate(-352.28 -140.4)"/><path class="cls-8" d="M486.51,295.87l-.22,1.54-.83-1.12a.41.41,0,0,1,0-.28l.06-.6Z" transform="translate(-352.28 -140.4)"/><path class="cls-8" d="M486.63,295.61l-.17,1.23,1.1-2a.3.3,0,0,0,.05-.14l.1-.58Z" transform="translate(-352.28 -140.4)"/><path class="cls-9" d="M484.8,291.55l3-1.76a3.13,3.13,0,0,0,1.07-1.27l4.77-9.79-1.53.94a3.3,3.3,0,0,0-1.06,1.17Z" transform="translate(-352.28 -140.4)"/><path class="cls-9" d="M500.79,282.1l-3.2,1.89c-.41.24-.76.2-.92-.11l-2.9-5.24,1.54-.94c.38-.24.72-.25.94-.05Z" transform="translate(-352.28 -140.4)"/><path class="cls-8" d="M493.79,278l1.49-.91a2,2,0,0,0,.65-.74l3-5.46-1.17.73a2.37,2.37,0,0,0-.72.8Z" transform="translate(-352.28 -140.4)"/><path class="cls-8" d="M493.79,278l-1.48.91c-.23.14-.43.14-.54,0l-1.89-2.38,1.11-.7c.25-.15.47-.16.61,0Z" transform="translate(-352.28 -140.4)"/><path class="cls-8" d="M496.38,272.12l-.68.43a1.32,1.32,0,0,0-.43.47l-1.08,1.86.44.44Z" transform="translate(-352.28 -140.4)"/><path class="cls-8" d="M493.45,274.16c-.08-.09-.21-.08-.37,0l-.67.42,1.14,1.39.64-1.11Z" transform="translate(-352.28 -140.4)"/><path class="cls-8" d="M494.63,275.32l-.44-.44-.64,1.11h0c.07.08.19.08.33,0l.34-.22a1.08,1.08,0,0,0,.38-.43Z" transform="translate(-352.28 -140.4)"/><path class="cls-10" d="M561.08,367.51l-4.58,21.76a18.1,18.1,0,0,1-5.63.69c-7.46,0-19-2.75-15.49-19.14,3.13-14.73,16.31-20.91,26.81-20.91,7,0,13,1.66,16.73,4.91l3.41-16.4a45.93,45.93,0,0,0-20.77-4.52c-17.77,0-39.09,9.72-44.43,34.76-5.36,25.52,11.22,36.91,31.15,36.91a61.13,61.13,0,0,0,22.91-4.52l7.32-34.75H562.57a1.52,1.52,0,0,0-1.49,1.21" transform="translate(-352.28 -140.4)"/><path class="cls-10" d="M688.59,333.9c-23.66,0-39.43,16.2-43.35,34.76-4.17,19.73,5.92,36.91,29.88,36.91,23.65,0,39.43-16.2,43.34-34.75,4.18-19.74-6.9-36.92-29.87-36.92m11.6,35.25c-2.37,11.58-10.85,19.73-23.12,19.73-11.48,0-15.77-8.15-13.56-18.55,2.48-11.59,10.86-19.74,23.13-19.74,11.48,0,15.77,8.15,13.55,18.56" transform="translate(-352.28 -140.4)"/><path class="cls-10" d="M743.08,354.42c.35-2.84,3.58-4.71,10.66-4.81a30.64,30.64,0,0,1,19.31,6.09l3.08-15a1.51,1.51,0,0,0-.71-1.61c-5.24-3.12-13-5.22-21.45-5.22-13.25,0-26.33,6-29.17,19.15-5.2,24.15,30.71,20.81,28.55,32.1-.55,3-5,4.71-12,4.71A34.64,34.64,0,0,1,719,382.4l-2.91,13.7a4,4,0,0,0,2.13,4.45,49.8,49.8,0,0,0,22.73,5c14.63,0,27.22-4.32,30.89-19.93,5.67-23.95-29.86-22.19-28.8-31.22" transform="translate(-352.28 -140.4)"/><path class="cls-10" d="M799,354.42c.34-2.84,3.58-4.71,10.65-4.81A30.65,30.65,0,0,1,829,355.7l3.08-15a1.53,1.53,0,0,0-.71-1.61c-5.24-3.12-13-5.22-21.45-5.22-13.25,0-26.33,6-29.18,19.15-5.19,24.15,30.72,20.81,28.55,32.1-.55,3-4.95,4.71-12,4.71A34.66,34.66,0,0,1,775,382.4l-2.91,13.7a4.05,4.05,0,0,0,2.13,4.45,49.87,49.87,0,0,0,22.74,5c14.62,0,27.22-4.32,30.88-19.93,5.68-23.95-29.86-22.19-28.79-31.22" transform="translate(-352.28 -140.4)"/><path class="cls-10" d="M620.09,335.38H593.57a2.52,2.52,0,0,0-2.47,2L577,404.1h18.16l11-51.81a1.53,1.53,0,0,1,1.49-1.21h10.25c5.2,0,8.33,2.16,7.15,7.86-1,4.66-5.18,7.72-10,8h-9.52l15.65,34.18a5.07,5.07,0,0,0,4.6,3h14.91l-13-25.21c7.8-3.17,13.69-9,15.91-19.27,3.92-18.75-10.51-24.24-23.47-24.24" transform="translate(-352.28 -140.4)"/><path class="cls-10" d="M867,335.38h15.93l12.49,68.72H877.15l-1.69-10.8h-27a2.51,2.51,0,0,0-2.19,1.27l-5.44,9.53h-19l39.57-65.55a6.58,6.58,0,0,1,5.63-3.17m6.2,43.19-2.72-19.24a41.13,41.13,0,0,1-.39-7.56,46.17,46.17,0,0,1-3.43,7.37l-11.13,19.43Z" transform="translate(-352.28 -140.4)"/><path class="cls-10" d="M607,259.58a2.53,2.53,0,0,1,2.47-2H634c15.86,0,28.79,5.94,24.9,24.44-3.63,17.33-16.06,22.29-33.39,22.29h-9.93l-4.1,19.41a2.54,2.54,0,0,1-2.48,2H593Zm21.86,29.14c6,0,10.63-2.14,11.8-7.88,1.42-6.52-3.29-7.69-8.26-7.69h-9a1.52,1.52,0,0,0-1.49,1.2l-3.09,14.37Z" transform="translate(-352.28 -140.4)"/><path class="cls-10" d="M657.82,290.58c3.88-18.4,19.52-34.47,43-34.47,22.78,0,33.76,17,29.62,36.61-3.88,18.39-19.52,34.46-43,34.46-23.75,0-33.76-17-29.62-36.6m54.49.48c2.19-10.32-2.06-18.4-13.44-18.4-12.17,0-20.48,8.08-22.93,19.57-2.2,10.32,2,18.4,13.44,18.4,12.17,0,20.57-8.08,22.93-19.57" transform="translate(-352.28 -140.4)"/><path class="cls-10" d="M742.88,257.57h12a5.06,5.06,0,0,1,4.46,2.67l19.32,36.08a93,93,0,0,1,1.74-11l5.84-27.75h18l-14.37,68.15H776.66a3,3,0,0,1-2.68-1.61l-19.8-37a73.56,73.56,0,0,1-1.5,10.12l-6.17,28.53h-18Z" transform="translate(-352.28 -140.4)"/><path class="cls-10" d="M823.32,273.64H804.05l3.12-14.87a1.5,1.5,0,0,1,1.47-1.2h55.24L861,271.25a3,3,0,0,1-2.94,2.39H841.33l-10.75,50.89a1.51,1.51,0,0,1-1.47,1.19H812.32Z" transform="translate(-352.28 -140.4)"/><path class="cls-10" d="M883.26,257.57H899l12.4,68.15H893.31L891.63,315H864.87a2.55,2.55,0,0,0-2.2,1.27l-5.38,9.44H838.41l39.23-65a6.57,6.57,0,0,1,5.62-3.18m6.12,42.84-2.7-19.08a42.38,42.38,0,0,1-.39-7.5,44.82,44.82,0,0,1-3.4,7.3l-11,19.28Z" transform="translate(-352.28 -140.4)"/><path class="cls-11" d="M525.93,423.05h6.32c3.72,0,7,1.42,6,5.86-.87,4.23-4.07,5.43-8.2,5.43h-2.9L526,439.86h-3.62Zm4.79,8.12c2,0,3.51-.6,3.92-2.52s-1.14-2.43-2.73-2.43h-3l-1,4.95Z" transform="translate(-352.28 -140.4)"/><path class="cls-11" d="M566,423.05h6.82c3.12,0,6.45,1.34,5.56,5.69a6.09,6.09,0,0,1-4.62,4.81l3.58,6.31h-3.91L570.19,434h-3L566,439.86H562.4Zm5.31,7.93a3.22,3.22,0,0,0,3.41-2.43c.38-1.78-.79-2.33-2.33-2.33h-3.45l-1,4.76Z" transform="translate(-352.28 -140.4)"/><polygon class="cls-11" points="254.61 282.65 266.42 282.65 265.75 285.82 257.53 285.82 256.77 289.4 264.3 289.4 263.62 292.57 256.12 292.57 255.32 296.29 263.69 296.29 263.02 299.46 251.06 299.46 254.61 282.65"/><polygon class="cls-11" points="293.43 282.65 305.29 282.65 304.59 285.92 296.34 285.92 295.52 289.81 303.09 289.81 302.39 293.07 294.84 293.07 293.5 299.46 289.88 299.46 293.43 282.65"/><polygon class="cls-11" points="331.96 282.65 343.78 282.65 343.11 285.82 334.89 285.82 334.13 289.4 341.65 289.4 340.98 292.57 333.48 292.57 332.68 296.29 341.05 296.29 340.38 299.46 328.42 299.46 331.96 282.65"/><polygon class="cls-11" points="370.78 282.65 374.4 282.65 370.86 299.46 367.24 299.46 370.78 282.65"/><polygon class="cls-11" points="404.94 285.92 399.81 285.92 400.49 282.65 414.37 282.65 413.67 285.92 408.56 285.92 405.7 299.46 402.1 299.46 404.94 285.92"/><path class="cls-11" d="M790.4,433.43l2.2-10.38h3.6L794,433.45c-.54,2.67.74,3.48,2.89,3.48,2.38,0,4.13-1,4.7-3.67l2.14-10.21h3.6l-2.21,10.59c-1.08,5-4.76,6.56-8.54,6.56s-7.2-1.77-6.17-6.77" transform="translate(-352.28 -140.4)"/><path class="cls-11" d="M834.76,423.05h6.83c3.12,0,6.44,1.34,5.55,5.69a6.08,6.08,0,0,1-4.62,4.81l3.58,6.31h-3.91L839,434h-3l-1.22,5.88h-3.61Zm5.31,7.93a3.22,3.22,0,0,0,3.41-2.43c.38-1.78-.79-2.33-2.33-2.33h-3.44l-1,4.76Z" transform="translate(-352.28 -140.4)"/><path class="cls-11" d="M880.8,423.05h3.9L888,439.86h-3.64l-.55-3.12h-7.7l-1.87,3.12h-3.81Zm2.48,10.66-1-5.88a6.79,6.79,0,0,1-.09-1.46,9.56,9.56,0,0,1-.7,1.43l-3.57,5.91Z" transform="translate(-352.28 -140.4)"/><rect class="cls-12" x="855.72" y="347.19" width="215.02" height="2.18" transform="translate(75.91 1081.29) rotate(-78.39)"/><path class="cls-10" d="M1005.86,412.43l1.28-8.06a22.2,22.2,0,0,0,13.33,4.17c4.76,0,8-1.16,8.35-3.94,1.22-7.94-21-5.57-18.79-19.72,1.22-7.53,8.7-10.9,16.24-10.9a24.74,24.74,0,0,1,12.81,3.37l-1.16,7.82a18.51,18.51,0,0,0-11.42-3.53c-4.64.06-7.3,1.27-7.65,3.94-.81,6.9,21.34,5.1,18.9,19.31-1.56,8.75-8.93,11.31-17,11.31a28.69,28.69,0,0,1-14.84-3.77" transform="translate(-352.28 -140.4)"/><path class="cls-10" d="M1061.52,374.79H1071l10.09,40.59h-8.81l-1.74-7.53H1051.9l-4.12,7.53h-9.22Zm7.36,25.75-3.24-14.21a17.65,17.65,0,0,1-.41-3.53,20.15,20.15,0,0,1-1.51,3.48l-7.88,14.26Z" transform="translate(-352.28 -140.4)"/><path class="cls-10" d="M1087.44,399.84l4-25h8.69l-4,25.11c-1,6.44,2.21,8.41,7.42,8.41,5.74,0,9.86-2.49,10.91-8.87l3.88-24.65h8.7l-4,25.58c-2,12-10.67,15.83-19.83,15.83-8.82,0-17.63-4.3-15.77-16.36m23.25-37.34h9.39l-7.6,8.64h-8.35Z" transform="translate(-352.28 -140.4)"/><path class="cls-10" d="M1137.07,374.79h15c13.86,0,20.12,8.76,18.21,20.82-1.86,11.54-9.45,19.77-23.89,19.77h-15.77Zm9.8,32.94c8,0,13.33-4.58,14.67-13.16,1.27-8.06-2.27-12.12-10.27-12.12h-6.72l-4,25.28Z" transform="translate(-352.28 -140.4)"/><polygon class="cls-10" points="829.54 234.4 858.13 234.4 856.91 242.05 837.02 242.05 835.63 250.69 853.84 250.69 852.62 258.34 834.47 258.34 833.02 267.33 853.26 267.33 852.04 274.98 823.11 274.98 829.54 234.4"/><polygon class="cls-10" points="679.46 140.78 697.73 140.78 697.23 143.86 682.19 143.86 680.73 153.15 694.65 153.15 694.15 156.24 680.23 156.24 678.41 167.77 675.18 167.77 679.46 140.78"/><path class="cls-10" d="M1053.09,298.18l2.7-17H1059l-2.7,17.08c-.89,5.47,2.16,7.28,6.75,7.28,4.93,0,8.48-2,9.37-7.51l2.66-16.85h3.24l-2.74,17.23c-1.23,7.71-6.59,10.22-12.49,10.22-6.09,0-11.26-2.74-10-10.45" transform="translate(-352.28 -140.4)"/><path class="cls-10" d="M1086.17,281.17h2.74L1102,303c.11-1.16.23-1.85.35-2.7l3-19.13h3.24l-4.28,27h-2.74l-13.11-21.87c-.11,1.16-.23,1.89-.34,2.7l-3,19.17h-3.24Z" transform="translate(-352.28 -140.4)"/><path class="cls-10" d="M1116.78,281.18h8.79c9.14,0,13.42,5.82,12.19,13.68s-6.48,13.31-16.31,13.31h-9Zm5,23.9c7.28,0,11.68-4.05,12.72-10.6s-2-10.22-9.29-10.22h-5.71l-3.28,20.82Z" transform="translate(-352.28 -140.4)"/><path class="cls-10" d="M1153.72,281.18h3.62l7.45,27h-3.36l-1.73-6.52h-14.58l-3.78,6.52h-3.62Zm5.17,17.46-3.51-13.11a4.85,4.85,0,0,1-.23-1.12c-.2.43-.39.81-.62,1.2l-7.67,13Z" transform="translate(-352.28 -140.4)"/><path class="cls-10" d="M1175,316.34l.42-2.51a8.19,8.19,0,0,0,3.4.78c1.81,0,2.85-.47,3-1.24.19-1.19-2-1.46-4.28-1l1.42-3.82c-5.94-.81-11.68-5.67-10.21-14.61,1.38-8.52,9.36-13.19,16.11-13.19a13.42,13.42,0,0,1,7.17,1.85l-.46,3.13a10.24,10.24,0,0,0-6.36-1.89c-5.67,0-12.11,3.47-13.26,10.48-1.28,7.91,4.51,11.26,9.64,11.26a13.71,13.71,0,0,0,7.32-2l-.54,3.51a17.65,17.65,0,0,1-6.86,1.58l-.73,1.77c2.35-.07,3.89,1.12,3.62,3.2-.35,2.43-2.51,3.51-5.32,3.51a10.74,10.74,0,0,1-4-.77" transform="translate(-352.28 -140.4)"/><path class="cls-10" d="M1206.92,281.17h3.63l7.44,27h-3.35l-1.74-6.52h-14.57l-3.78,6.52h-3.63Zm5.17,17.47-3.51-13.11a6.19,6.19,0,0,1-.23-1.12,9.7,9.7,0,0,1-.62,1.2l-7.67,13Zm-5.51-21.51a1.22,1.22,0,0,0-1.39,1.38h-2.66c0-2.85,1.85-4.08,3.58-4.08,2.39,0,4.13,1.62,5.63,1.62,1,0,1.43-.51,1.39-1.39h2.66c0,2.89-1.85,4.09-3.62,4.09-2.43,0-4.13-1.62-5.59-1.62" transform="translate(-352.28 -140.4)"/><path class="cls-10" d="M1221.77,294.48a16.1,16.1,0,0,1,16.15-13.77c8.75,0,13.15,7.1,12,14.15s-6.4,13.77-16.15,13.77c-8.76,0-13.15-7.1-12-14.15m24.94.19c.81-5.09-1.73-10.87-9-10.87A12.54,12.54,0,0,0,1225,294.67c-.81,5.09,1.74,10.87,9,10.87a12.53,12.53,0,0,0,12.72-10.87" transform="translate(-352.28 -140.4)"/><polygon class="cls-10" points="669.82 187.04 672.71 187.04 680.84 203.74 694.22 187.04 697.58 187.04 693.3 214.03 690.06 214.03 693.45 192.78 681.5 207.67 679.42 207.67 672.17 192.78 668.77 214.03 665.53 214.03 669.82 187.04"/><path class="cls-10" d="M1055,344.44l2.7-17h3.24l-2.7,17.08c-.89,5.48,2.16,7.29,6.75,7.29,4.93,0,8.48-2,9.37-7.52l2.66-16.85h3.24l-2.74,17.24c-1.24,7.71-6.6,10.21-12.5,10.21-6.09,0-11.25-2.73-10-10.45" transform="translate(-352.28 -140.4)"/><path class="cls-10" d="M1088.06,327.44h2.74l13.11,21.82c.11-1.15.23-1.85.34-2.7l3-19.12h3.24l-4.28,27h-2.74l-13.11-21.86c-.12,1.15-.23,1.89-.35,2.7l-3,19.16h-3.24Z" transform="translate(-352.28 -140.4)"/><polygon class="cls-10" points="766.39 187.04 769.63 187.04 765.35 214.03 762.11 214.03 766.39 187.04"/><path class="cls-10" d="M1126.15,340.16c1.39-8.52,9.37-13.18,16.12-13.18a13.38,13.38,0,0,1,7.17,1.85L1149,332a10.33,10.33,0,0,0-6.37-1.89c-5.66,0-12.1,3.47-13.26,10.49-1.27,7.9,4.51,11.26,9.64,11.26a13.69,13.69,0,0,0,7.33-2l-.54,3.51a17.68,17.68,0,0,1-7.68,1.58c-6.48,0-13.57-4.89-11.95-14.73" transform="translate(-352.28 -140.4)"/><polygon class="cls-10" points="803.63 187.04 806.87 187.04 802.59 214.03 799.35 214.03 803.63 187.04"/><path class="cls-10" d="M1167.29,327.44h9.52c5.4,0,10.8,2.08,9.72,8.91-1,6.67-6.48,8.52-12.73,8.52h-6l-1.51,9.56H1163Zm7,14.34c4.59,0,8.29-1.19,9-5.82s-3.13-5.44-6.71-5.44H1170l-1.77,11.26Z" transform="translate(-352.28 -140.4)"/><path class="cls-10" d="M1200.1,327.44h3.62l7.44,27h-3.35l-1.74-6.52H1191.5l-3.78,6.52h-3.63Zm5.16,17.47-3.51-13.11a6.56,6.56,0,0,1-.23-1.12,11.08,11.08,0,0,1-.61,1.19l-7.68,13Z" transform="translate(-352.28 -140.4)"/><polygon class="cls-10" points="868.02 187.04 871.26 187.04 867.48 210.95 882.44 210.95 881.94 214.03 863.74 214.03 868.02 187.04"/><path class="cls-10" d="M1253,327.44h8.79c9.14,0,13.42,5.82,12.19,13.69-1.24,7.71-6.48,13.3-16.31,13.3h-8.95Zm5,23.91c7.29,0,11.69-4.05,12.73-10.61,1-6.4-2-10.22-9.29-10.22h-5.71l-3.28,20.83Z" transform="translate(-352.28 -140.4)"/><polygon class="cls-10" points="930.13 187.04 948.33 187.04 947.83 190.12 932.87 190.12 931.48 198.88 945.28 198.88 944.82 201.96 931.01 201.96 929.59 210.95 944.78 210.95 944.28 214.03 925.85 214.03 930.13 187.04"/></g></g></g></svg>